#!OML:ASF E:\emotionWalksFemale\Project 1\Capture day 1\Session 1\Female1.ASF
:FULLY-SPECIFIED
:DEGREES
1290
root 9.5391 15.4139 -21.3952 180.174 -0.41881 -174.045
lowerback 7.81327 2.12316 4.20234
upperback -6.90844 3.22185 0.870666
thorax -11.6779 1.10946 -1.9514
lowerneck -0.802238 -4.94028 -7.08155
upperneck 0.318624 -6.5757 5.68368
head 0.697973 -3.28568 2.97135
rclavicle -2.54941e-014 -1.94809e-014
rhumerus -46.0395 11.8432 -94.005
rradius 29.0598
rwrist 21.426
rhand 0.115067 -48.8247
rfingers 7.12502
rthumb 25.7006 -77.1096
lclavicle -2.54941e-014 -1.94809e-014
lhumerus -47.7995 -2.52343 85.6118
lradius 35.8392
lwrist -19.754
lhand -6.87446 -33.6086
lfingers 7.12502
lthumb 18.9916 -4.51577
rfemur 17.2414 9.84978 39.4597
rtibia -6.36111e-015
rfoot -8.25599 -23.0297
rtoes 8.3977
lfemur -30.8003 -28.3484 -9.44869
ltibia 27.552
lfoot -25.5724 26.0458
ltoes -10.087
1291
root 9.52985 15.4196 -21.4655 180.204 -0.296785 -174.026
lowerback 7.64918 2.18821 4.22817
upperback -6.78432 3.30756 0.863849
thorax -11.4293 1.16101 -1.97882
lowerneck -1.3626 -5.16507 -7.08799
upperneck 0.615317 -6.84316 5.52192
head 0.902807 -3.41347 2.89201
rclavicle 3.34952e-014 2.18663e-014
rhumerus -45.9431 11.7269 -93.765
rradius 29.0064
rwrist 21.3764
rhand 0.0198391 -48.9182
rfingers 7.12502
rthumb 25.6094 -77.2162
lclavicle 3.34952e-014 2.18663e-014
lhumerus -48.0737 -2.68194 85.411
lradius 35.9822
lwrist -19.4092
lhand -6.88119 -33.3166
lfingers 7.12502
lthumb 18.9851 -4.22319
rfemur 17.4563 9.65499 39.3834
rtibia -5.40694e-014
rfoot -8.13463 -22.7068
rtoes 7.8217
lfemur -30.2995 -27.7201 -9.88603
ltibia 27.3948
lfoot -24.2274 26.2669
ltoes -14.3937
1292
root 9.51729 15.4188 -21.5394 180.32 -0.135772 -174.007
lowerback 7.58785 2.2483 4.25013
upperback -6.91653 3.37718 0.847452
thorax -11.5357 1.18098 -2.01887
lowerneck -0.89239 -5.02417 -7.16554
upperneck 0.236792 -6.68059 5.76767
head 0.701646 -3.33685 3.01138
rclavicle 1.26725e-014 1.94809e-014
rhumerus -46.3455 11.8161 -93.8128
rradius 29.0661
rwrist 21.0525
rhand -0.394647 -49.3133
rfingers 7.12502
rthumb 25.2123 -77.6678
lclavicle 1.26725e-014 1.94809e-014
lhumerus -48.7279 -2.63456 85.0844
lradius 36.082
lwrist -19.1935
lhand -6.68457 -33.2653
lfingers 7.12502
lthumb 19.1742 -4.19052
rfemur 17.6432 9.52797 39.2827
rtibia 7.79236e-014
rfoot -8.07246 -22.4064
rtoes 8.11774
lfemur -29.8535 -27.2209 -10.2462
ltibia 27.1891
lfoot -23.5395 26.2438
ltoes -15.562
1293
root 9.50407 15.4141 -21.6157 180.277 -0.0551261 -174.124
lowerback 7.50651 2.2402 4.09406
upperback -6.91668 3.34114 0.857807
thorax -11.4968 1.17793 -1.91102
lowerneck -0.583233 -4.93231 -7.2823
upperneck -0.105286 -6.57117 5.95178
head 0.542483 -3.28527 3.11144
rclavicle 2.22639e-014 -5.96354e-015
rhumerus -46.5479 12.1537 -93.8133
rradius 29.0443
rwrist 20.8668
rhand -0.402469 -49.3827
rfingers 7.12502
rthumb 25.2048 -77.7382
lclavicle 2.22639e-014 -5.96354e-015
lhumerus -49.285 -2.41853 84.7485
lradius 36.1906
lwrist -19.0609
lhand -6.63703 -33.2982
lfingers 7.12502
lthumb 19.2199 -4.22797
rfemur 17.995 9.27612 39.0459
rtibia -6.67916e-014
rfoot -7.95573 -22.0831
rtoes 7.96802
lfemur -29.2782 -26.905 -10.7912
ltibia 27.0661
lfoot -23.6295 25.7572
ltoes -13.1592
1294
root 9.49686 15.4106 -21.6942 179.998 -0.0145404 -174.529
lowerback 7.21464 2.26408 3.68759
upperback -6.58918 3.31814 0.761414
thorax -10.9639 1.22812 -1.76783
lowerneck -0.6365 -5.0185 -7.41618
upperneck -0.290041 -6.67694 5.99909
head 0.507415 -3.3367 3.1512
rclavicle 3.93594e-014 9.93923e-015
rhumerus -46.231 12.2797 -93.6218
rradius 28.8368
rwrist 20.8694
rhand -0.165175 -49.3026
rfingers 7.12502
rthumb 25.4322 -77.626
lclavicle 3.93594e-014 9.93923e-015
lhumerus -49.4016 -2.2867 84.3986
lradius 36.2587
lwrist -19.1217
lhand -6.72907 -33.3641
lfingers 7.12502
lthumb 19.1314 -4.28505
rfemur 18.5883 8.90982 38.561
rtibia -6.04305e-014
rfoot -7.90681 -21.7613
rtoes 7.48967
lfemur -28.4165 -26.5084 -11.7994
ltibia 27.1084
lfoot -23.4075 25.3588
ltoes -14.834
1295
root 9.48742 15.4098 -21.7711 179.967 0.24934 -174.481
lowerback 7.43847 1.97143 3.56171
upperback -6.79269 3.53021 0.850276
thorax -11.35 1.58075 -1.70323
lowerneck -0.663192 -5.04483 -7.39619
upperneck 0.189437 -6.71837 5.8012
head 0.659492 -3.35808 3.07189
rclavicle -1.7344e-014 -5.56597e-015
rhumerus -46.8315 12.2035 -93.5561
rradius 28.9036
rwrist 20.6917
rhand -0.224788 -49.3967
rfingers 7.12502
rthumb 25.375 -77.7283
lclavicle -1.7344e-014 -5.56597e-015
lhumerus -50.3472 -2.03142 83.9901
lradius 36.5551
lwrist -19.2064
lhand -6.41231 -33.2013
lfingers 7.12502
lthumb 19.436 -4.15268
rfemur 18.9382 8.83077 38.5331
rtibia 1.59028e-014
rfoot -7.74703 -21.4673
rtoes 7.10325
lfemur -27.8487 -26.097 -12.1383
ltibia 27.2591
lfoot -22.7483 25.8414
ltoes -21.426
1296
root 9.46939 15.4071 -21.8467 180.258 0.635701 -173.742
lowerback 7.04274 2.051 4.36442
upperback -6.74823 3.74183 0.991009
thorax -11.0168 1.64158 -2.01152
lowerneck -1.45041 -5.10906 -7.08447
upperneck 0.662194 -6.76459 5.53955
head 0.928536 -3.37335 2.89649
rclavicle -5.36719e-015 3.18055e-015
rhumerus -46.783 12.177 -93.5318
rradius 28.9424
rwrist 20.1878
rhand -1.049 -49.0445
rfingers 7.12502
rthumb 24.5852 -77.4858
lclavicle -5.36719e-015 3.18055e-015
lhumerus -50.1957 -2.26555 83.7853
lradius 36.0132
lwrist -18.6719
lhand -6.37065 -33.0703
lfingers 7.12502
lthumb 19.476 -4.02576
rfemur 18.9212 8.96967 39.1631
rtibia 5.08889e-014
rfoot -7.35423 -21.1819
rtoes 5.95941
lfemur -27.7829 -25.809 -11.4742
ltibia 27.4811
lfoot -22.3013 26.3823
ltoes -25.1276
1297
root 9.45006 15.405 -21.9246 180.461 0.857645 -173.314
lowerback 7.11202 2.07742 4.9115
upperback -7.00765 3.89899 1.01417
thorax -11.3182 1.67541 -2.32933
lowerneck -0.233776 -4.72612 -7.4951
upperneck -0.445842 -6.31923 6.50693
head 0.383356 -3.16591 3.36125
rclavicle 1.5704e-014 2.38542e-015
rhumerus -47.2271 11.9722 -93.5543
rradius 28.9365
rwrist 20.2271
rhand -1.41044 -48.8215
rfingers 7.12502
rthumb 24.2388 -77.3095
lclavicle 1.5704e-014 2.38542e-015
lhumerus -50.9678 -2.36749 83.4239
lradius 36.1314
lwrist -18.5755
lhand -6.36498 -33.0753
lfingers 7.12502
lthumb 19.4815 -4.03131
rfemur 18.9905 8.93307 39.4557
rtibia 4.13472e-014
rfoot -6.97574 -20.8418
rtoes 4.36129
lfemur -27.7397 -25.8659 -11.0959
ltibia 27.7699
lfoot -22.5071 26.3942
ltoes -24.227
1298
root 9.4324 15.4094 -22.0051 180.526 1.00294 -173.303
lowerback 7.00965 2.13602 5.03239
upperback -7.14694 4.00765 0.97255
thorax -11.3981 1.71875 -2.45832
lowerneck -0.368502 -4.87816 -7.53049
upperneck 0.0237355 -6.5258 6.414
head 0.570894 -3.268 3.32126
rclavicle -1.12313e-014 -1.11319e-014
rhumerus -47.5039 11.5466 -93.1636
rradius 29.1391
rwrist 21.2857
rhand 0.308474 -49.329
rfingers 7.12502
rthumb 25.8858 -77.5869
lclavicle -1.12313e-014 -1.11319e-014
lhumerus -51.6605 -2.25417 83.0427
lradius 36.3017
lwrist -18.7015
lhand -6.04249 -32.9242
lfingers 7.12502
lthumb 19.7915 -3.91186
rfemur 19.2359 8.78328 39.3225
rtibia 2.22639e-014
rfoot -6.58573 -20.4429
rtoes 2.74562
lfemur -27.5944 -26.4402 -11.0843
ltibia 27.9884
lfoot -23.04 26.6487
ltoes -21.9924
